# xmcd
#
# Track frame offsets:
#	150
#	18195
#	40155
#	102803
#	121525
#	135353
#	160193
#	212135
#
# Disc length: 3119 seconds
#
# Revision: 0
# Processed by: cddbd v1.5.1PL0 Copyright (c) Steve Scherf et al.
# Submitted via: dBpowerAMP V4.0
#
DISCID=570c2d08
DTITLE=Zohar Argov - Al Nevakesh
DYEAR=1998
DGENRE=Israeli
TTITLE0=Al Nevakesh
TTITLE1=Hoi Ima
TTITLE2=String-OdYomYavo-ShamHarchekByaar-ZelEtsTamar-EshetHail-HakesemHashhor
TTITLE3=String-Ma Lach Yalda-Agunia
TTITLE4=String-Yerushlaim shel Zhav-Dror Ikra
TTITLE5=String-Arkadash-Jozelim Amen
TTITLE6=String-Raaia-Levad Yoshevet-Lama El
TTITLE7=String-Et Yaale Yareach-Shecharchoret
EXTD=
EXTT0=
EXTT1=
EXTT2=
EXTT3=
EXTT4=
EXTT5=
EXTT6=
EXTT7=
PLAYORDER=
